<svg width="151" height="138" viewBox="0 0 151 138" fill="none" xmlns="http://www.w3.org/2000/svg">
<path d="M0.115726 0.186027C6.17564 0.150635 12.2355 0.12362 18.2955 0.107109C21.1098 0.0991822 23.9241 0.0884397 26.7384 0.0711216C29.4575 0.0544946 32.1766 0.0454479 34.8959 0.0415151C35.93 0.0387147 36.9641 0.0332463 37.9982 0.0249847C48.2399 -0.0535383 48.2399 -0.0535383 52.918 1.70917C53.3526 1.85108 53.7873 1.99299 54.2351 2.1392C61.9051 4.68582 67.6858 11.0637 71.3569 18.0368C72.7573 20.8598 73.6355 23.7142 74.3986 26.7736C74.6172 28.0632 74.6172 28.0632 75.2574 28.618C75.3202 28.2358 75.383 27.8536 75.4478 27.4598C77.2045 18.4127 81.8154 10.6688 89.3623 5.28498C95.0068 1.70234 100.429 0.0143826 107.066 0.0707497C107.532 0.0706014 107.998 0.0704532 108.479 0.0703004C110.003 0.0710018 111.528 0.0788743 113.052 0.0868637C114.116 0.0887596 115.179 0.0902041 116.243 0.0912176C119.03 0.095078 121.817 0.105039 124.604 0.116303C127.452 0.126726 130.301 0.131335 133.15 0.136445C138.73 0.147306 144.311 0.164617 149.891 0.186027C149.927 4.77205 149.954 9.35802 149.97 13.9442C149.978 16.0743 149.989 18.2044 150.006 20.3346C150.023 22.3954 150.032 24.4561 150.036 26.5169C150.039 27.298 150.044 28.079 150.052 28.86C150.148 38.2509 148.222 47.0301 142.276 54.5114C142.011 54.8596 141.745 55.2078 141.472 55.5665C135.697 62.7046 127.559 66.0181 118.921 68.2197C120.454 69.0547 122.037 69.6294 123.684 70.2008C134.217 73.9033 141.657 80.2962 146.649 90.3687C146.881 90.9342 147.113 91.4996 147.353 92.0822C147.603 92.6637 147.603 92.6637 147.859 93.2568C149.694 98.0062 149.646 102.426 149.582 107.433C149.578 108.312 149.575 109.191 149.573 110.07C149.566 112.364 149.546 114.657 149.523 116.951C149.502 119.3 149.493 121.648 149.483 123.997C149.461 128.59 149.427 133.183 149.384 137.776C125.71 137.873 125.71 137.873 115.013 137.671C114.226 137.657 113.439 137.646 112.652 137.639C101.381 137.527 92.1108 134.146 83.6485 126.486C79.7729 122.53 75.6327 115.864 75.1582 110.189C75.1913 109.231 75.2243 108.272 75.2574 107.314C74.9223 107.314 74.5872 107.314 74.242 107.314C74.2524 107.623 74.2629 107.931 74.2737 108.25C74.1212 114.73 70.3778 120.877 66.1185 125.591C65.8299 125.932 65.5413 126.273 65.2439 126.625C58.9873 133.519 48.6826 137.196 39.5999 137.859C36.7888 137.98 33.9785 137.952 31.1656 137.925C30.278 137.922 29.3903 137.92 28.5026 137.919C26.1956 137.913 23.8888 137.898 21.5819 137.881C19.2161 137.865 16.8503 137.858 14.4844 137.851C9.86403 137.835 5.24375 137.809 0.62344 137.776C0.587987 132.785 0.561003 127.793 0.544523 122.8C0.536609 120.482 0.525892 118.163 0.508535 115.845C0.49186 113.603 0.482851 111.361 0.478929 109.119C0.476137 108.268 0.470686 107.418 0.462398 106.567C0.370721 96.7549 2.56138 88.3932 9.25458 80.9125C9.75329 80.3431 9.75329 80.3431 10.2621 79.7622C15.3987 74.2507 21.6048 71.6467 28.5477 69.2351C29.3962 68.9024 30.2435 68.5665 31.0863 68.2197C30.7171 68.1392 30.348 68.0587 29.9677 67.9757C19.8465 65.6271 10.6387 59.9187 4.97074 50.9891C2.18989 45.9032 -0.019203 40.1925 0.000449332 34.3656C0.000301054 33.9937 0.000152771 33.6218 0 33.2386C0.000701721 32.0216 0.00857525 30.8048 0.0165633 29.5878C0.0184592 28.7392 0.0199037 27.8905 0.0209172 27.0419C0.0247784 24.8175 0.0347404 22.5931 0.0460023 20.3688C0.0564236 18.0953 0.0610347 15.8217 0.0661447 13.5482C0.0770071 9.09413 0.0943191 4.64008 0.115726 0.186027Z" fill="#323228"/>
</svg>
