<svg width="32" height="32" viewBox="0 0 512 512" fill="none" xmlns="http://www.w3.org/2000/svg">
  <rect width="512" height="512" fill="#2D2D2D" rx="64"/>
  <path d="M164 193C164 138.399 208.399 94 263 94H349V193C349 247.601 304.601 292 250 292H164V193Z" fill="white"/>
  <path d="M348 193C348 138.399 392.399 94 447 94H533V193C533 247.601 488.601 292 434 292H348V193Z" fill="white"/>
  <path d="M164 319C164 264.399 208.399 220 263 220H349V319C349 373.601 304.601 418 250 418H164V319Z" fill="white"/>
  <path d="M348 319C348 264.399 392.399 220 447 220H533V319C533 373.601 488.601 418 434 418H348V319Z" fill="white"/>
</svg>
